<mxfile host="app.diagrams.net" modified="2023-06-25T09:16:31.839Z" agent="Mozilla/5.0 (Windows NT 10.0; Win64; x64) AppleWebKit/537.36 (KHTML, like Gecko) Chrome/114.0.0.0 Safari/537.36" etag="hq_liStzHjdD3vNwOvzT" version="21.3.3" type="github">
  <diagram name="第 1 页" id="x90SLZRSGqJVOgKwXgTj">
    <mxGraphModel dx="1064" dy="499" grid="1" gridSize="10" guides="1" tooltips="1" connect="1" arrows="1" fold="1" page="1" pageScale="1" pageWidth="827" pageHeight="1169" math="0" shadow="0">
      <root>
        <mxCell id="0" />
        <mxCell id="1" parent="0" />
        <mxCell id="V-CbSPrDg8GrjM4xDY10-1" value="&lt;span style=&quot;font-size: 18px;&quot;&gt;v&lt;sub&gt;i&lt;/sub&gt;&lt;/span&gt;" style="rounded=0;whiteSpace=wrap;html=1;fillColor=#dae8fc;strokeColor=#6c8ebf;" vertex="1" parent="1">
          <mxGeometry x="140" y="210" width="40" height="40" as="geometry" />
        </mxCell>
        <mxCell id="V-CbSPrDg8GrjM4xDY10-2" value="&lt;span style=&quot;font-size: 18px;&quot;&gt;e&lt;sub&gt;ij&lt;/sub&gt;&lt;/span&gt;" style="rounded=0;whiteSpace=wrap;html=1;fillColor=#ffe6cc;strokeColor=#d79b00;" vertex="1" parent="1">
          <mxGeometry x="140" y="310" width="40" height="40" as="geometry" />
        </mxCell>
        <mxCell id="V-CbSPrDg8GrjM4xDY10-7" value="" style="edgeStyle=orthogonalEdgeStyle;rounded=0;orthogonalLoop=1;jettySize=auto;html=1;" edge="1" parent="1" source="V-CbSPrDg8GrjM4xDY10-3" target="V-CbSPrDg8GrjM4xDY10-6">
          <mxGeometry relative="1" as="geometry" />
        </mxCell>
        <mxCell id="V-CbSPrDg8GrjM4xDY10-3" value="&lt;font style=&quot;font-size: 18px;&quot;&gt;G&lt;sup&gt;(t)&lt;/sup&gt;&lt;/font&gt;" style="rounded=0;whiteSpace=wrap;html=1;fillColor=#d5e8d4;strokeColor=#82b366;" vertex="1" parent="1">
          <mxGeometry x="240" y="250" width="60" height="60" as="geometry" />
        </mxCell>
        <mxCell id="V-CbSPrDg8GrjM4xDY10-4" value="" style="endArrow=classic;html=1;rounded=0;exitX=1;exitY=0.5;exitDx=0;exitDy=0;entryX=0;entryY=0.5;entryDx=0;entryDy=0;" edge="1" parent="1" source="V-CbSPrDg8GrjM4xDY10-1" target="V-CbSPrDg8GrjM4xDY10-3">
          <mxGeometry width="50" height="50" relative="1" as="geometry">
            <mxPoint x="110" y="130" as="sourcePoint" />
            <mxPoint x="160" y="80" as="targetPoint" />
            <Array as="points">
              <mxPoint x="200" y="230" />
              <mxPoint x="200" y="280" />
            </Array>
          </mxGeometry>
        </mxCell>
        <mxCell id="V-CbSPrDg8GrjM4xDY10-5" value="" style="endArrow=none;html=1;rounded=0;exitX=1;exitY=0.5;exitDx=0;exitDy=0;" edge="1" parent="1" source="V-CbSPrDg8GrjM4xDY10-2">
          <mxGeometry width="50" height="50" relative="1" as="geometry">
            <mxPoint x="190" y="410" as="sourcePoint" />
            <mxPoint x="200" y="280" as="targetPoint" />
            <Array as="points">
              <mxPoint x="200" y="330" />
            </Array>
          </mxGeometry>
        </mxCell>
        <mxCell id="V-CbSPrDg8GrjM4xDY10-10" value="" style="edgeStyle=orthogonalEdgeStyle;rounded=0;orthogonalLoop=1;jettySize=auto;html=1;" edge="1" parent="1" source="V-CbSPrDg8GrjM4xDY10-6" target="V-CbSPrDg8GrjM4xDY10-9">
          <mxGeometry relative="1" as="geometry" />
        </mxCell>
        <mxCell id="V-CbSPrDg8GrjM4xDY10-6" value="&lt;font style=&quot;font-size: 18px;&quot;&gt;MPN&lt;sub&gt;θ&lt;/sub&gt;&lt;/font&gt;" style="rounded=0;whiteSpace=wrap;html=1;fillColor=#f8cecc;strokeColor=#b85450;" vertex="1" parent="1">
          <mxGeometry x="350" y="250" width="90" height="60" as="geometry" />
        </mxCell>
        <mxCell id="V-CbSPrDg8GrjM4xDY10-8" value="&lt;font style=&quot;font-size: 12px;&quot;&gt;网络L层，融入注意力机制，着重关注CDR的一维序列信息。&lt;/font&gt;" style="text;html=1;strokeColor=none;fillColor=none;align=left;verticalAlign=middle;whiteSpace=wrap;rounded=0;" vertex="1" parent="1">
          <mxGeometry x="335" y="320" width="120" height="50" as="geometry" />
        </mxCell>
        <mxCell id="V-CbSPrDg8GrjM4xDY10-15" value="" style="edgeStyle=orthogonalEdgeStyle;rounded=0;orthogonalLoop=1;jettySize=auto;html=1;" edge="1" parent="1" source="V-CbSPrDg8GrjM4xDY10-9" target="V-CbSPrDg8GrjM4xDY10-14">
          <mxGeometry relative="1" as="geometry" />
        </mxCell>
        <mxCell id="V-CbSPrDg8GrjM4xDY10-28" value="" style="edgeStyle=orthogonalEdgeStyle;rounded=0;orthogonalLoop=1;jettySize=auto;html=1;" edge="1" parent="1" source="V-CbSPrDg8GrjM4xDY10-9">
          <mxGeometry relative="1" as="geometry">
            <mxPoint x="515" y="360" as="targetPoint" />
          </mxGeometry>
        </mxCell>
        <mxCell id="V-CbSPrDg8GrjM4xDY10-9" value="&lt;font style=&quot;font-size: 18px;&quot;&gt;h&lt;sub&gt;i&lt;/sub&gt;&lt;sup&gt;(t)&lt;/sup&gt;&lt;/font&gt;" style="rounded=0;whiteSpace=wrap;html=1;fillColor=#dae8fc;strokeColor=#6c8ebf;" vertex="1" parent="1">
          <mxGeometry x="490" y="255" width="50" height="50" as="geometry" />
        </mxCell>
        <mxCell id="V-CbSPrDg8GrjM4xDY10-14" value="&lt;font style=&quot;font-size: 14px;&quot;&gt;Self-attention&lt;br&gt;Encoder&lt;/font&gt;" style="shape=trapezoid;perimeter=trapezoidPerimeter;whiteSpace=wrap;html=1;fixedSize=1;direction=south;fillColor=#e1d5e7;strokeColor=#9673a6;" vertex="1" parent="1">
          <mxGeometry x="580" y="220" width="60" height="120" as="geometry" />
        </mxCell>
        <mxCell id="V-CbSPrDg8GrjM4xDY10-20" value="" style="edgeStyle=orthogonalEdgeStyle;rounded=0;orthogonalLoop=1;jettySize=auto;html=1;" edge="1" parent="1" source="V-CbSPrDg8GrjM4xDY10-16" target="V-CbSPrDg8GrjM4xDY10-19">
          <mxGeometry relative="1" as="geometry" />
        </mxCell>
        <mxCell id="V-CbSPrDg8GrjM4xDY10-16" value="&lt;font style=&quot;font-size: 18px;&quot;&gt;MLP&lt;/font&gt;" style="shape=trapezoid;perimeter=trapezoidPerimeter;whiteSpace=wrap;html=1;fixedSize=1;direction=north;fillColor=#e1d5e7;strokeColor=#9673a6;" vertex="1" parent="1">
          <mxGeometry x="660" y="220" width="60" height="120" as="geometry" />
        </mxCell>
        <mxCell id="V-CbSPrDg8GrjM4xDY10-18" value="&lt;font style=&quot;font-size: 18px;&quot;&gt;VAE&lt;/font&gt;" style="text;html=1;strokeColor=none;fillColor=none;align=center;verticalAlign=middle;whiteSpace=wrap;rounded=0;" vertex="1" parent="1">
          <mxGeometry x="620" y="330" width="60" height="30" as="geometry" />
        </mxCell>
        <mxCell id="V-CbSPrDg8GrjM4xDY10-22" value="" style="edgeStyle=orthogonalEdgeStyle;rounded=0;orthogonalLoop=1;jettySize=auto;html=1;" edge="1" parent="1" source="V-CbSPrDg8GrjM4xDY10-19" target="V-CbSPrDg8GrjM4xDY10-21">
          <mxGeometry relative="1" as="geometry" />
        </mxCell>
        <mxCell id="V-CbSPrDg8GrjM4xDY10-19" value="&lt;font style=&quot;font-size: 14px;&quot;&gt;h&lt;sub style=&quot;border-color: var(--border-color);&quot;&gt;i&lt;/sub&gt;&lt;sup style=&quot;border-color: var(--border-color);&quot;&gt;(t+0.5)&lt;/sup&gt;&lt;/font&gt;" style="whiteSpace=wrap;html=1;fillColor=#dae8fc;strokeColor=#6c8ebf;" vertex="1" parent="1">
          <mxGeometry x="760" y="253.75" width="50" height="52.5" as="geometry" />
        </mxCell>
        <mxCell id="V-CbSPrDg8GrjM4xDY10-24" value="" style="edgeStyle=orthogonalEdgeStyle;rounded=0;orthogonalLoop=1;jettySize=auto;html=1;" edge="1" parent="1" source="V-CbSPrDg8GrjM4xDY10-21" target="V-CbSPrDg8GrjM4xDY10-23">
          <mxGeometry relative="1" as="geometry" />
        </mxCell>
        <mxCell id="V-CbSPrDg8GrjM4xDY10-21" value="&lt;font style=&quot;font-size: 16px;&quot;&gt;MLP&lt;/font&gt;" style="rounded=0;whiteSpace=wrap;html=1;fillColor=#f8cecc;strokeColor=#b85450;" vertex="1" parent="1">
          <mxGeometry x="840" y="220" width="40" height="120" as="geometry" />
        </mxCell>
        <mxCell id="V-CbSPrDg8GrjM4xDY10-23" value="&lt;font style=&quot;font-size: 18px;&quot;&gt;x&lt;sub&gt;i&lt;/sub&gt;&lt;sup&gt;(t+1)&lt;/sup&gt;&lt;/font&gt;" style="rounded=0;whiteSpace=wrap;html=1;fillColor=#dae8fc;strokeColor=#6c8ebf;" vertex="1" parent="1">
          <mxGeometry x="910" y="255" width="50" height="50" as="geometry" />
        </mxCell>
        <mxCell id="V-CbSPrDg8GrjM4xDY10-34" value="" style="edgeStyle=orthogonalEdgeStyle;rounded=0;orthogonalLoop=1;jettySize=auto;html=1;" edge="1" parent="1" source="V-CbSPrDg8GrjM4xDY10-25" target="V-CbSPrDg8GrjM4xDY10-33">
          <mxGeometry relative="1" as="geometry" />
        </mxCell>
        <mxCell id="V-CbSPrDg8GrjM4xDY10-25" value="&lt;font style=&quot;font-size: 14px;&quot;&gt;全局图信息&lt;/font&gt;" style="rounded=0;whiteSpace=wrap;html=1;fillColor=#d5e8d4;strokeColor=#82b366;" vertex="1" parent="1">
          <mxGeometry x="620" y="60" width="120" height="40" as="geometry" />
        </mxCell>
        <mxCell id="V-CbSPrDg8GrjM4xDY10-26" value="" style="endArrow=classic;html=1;rounded=0;exitX=0.5;exitY=0;exitDx=0;exitDy=0;entryX=1;entryY=0.5;entryDx=0;entryDy=0;" edge="1" parent="1" source="V-CbSPrDg8GrjM4xDY10-23" target="V-CbSPrDg8GrjM4xDY10-25">
          <mxGeometry width="50" height="50" relative="1" as="geometry">
            <mxPoint x="870" y="170" as="sourcePoint" />
            <mxPoint x="920" y="120" as="targetPoint" />
            <Array as="points">
              <mxPoint x="935" y="80" />
            </Array>
          </mxGeometry>
        </mxCell>
        <mxCell id="V-CbSPrDg8GrjM4xDY10-29" value="与之前研究不同，氨基酸类型不再随着每一次迭代的结束向下预测，而是一直保持MASK状态，结构随着迭代的进行而改变，当所有氨基酸都进行计算后，迭代完成统一生成所有氨基酸的类型，这样实现了对信息的更全面考虑。" style="text;html=1;strokeColor=none;fillColor=none;align=left;verticalAlign=middle;whiteSpace=wrap;rounded=0;" vertex="1" parent="1">
          <mxGeometry x="370" y="390" width="310" height="30" as="geometry" />
        </mxCell>
        <mxCell id="V-CbSPrDg8GrjM4xDY10-41" value="" style="edgeStyle=orthogonalEdgeStyle;rounded=0;orthogonalLoop=1;jettySize=auto;html=1;" edge="1" parent="1" source="V-CbSPrDg8GrjM4xDY10-30" target="V-CbSPrDg8GrjM4xDY10-39">
          <mxGeometry relative="1" as="geometry" />
        </mxCell>
        <mxCell id="V-CbSPrDg8GrjM4xDY10-30" value="v&lt;sub&gt;i&lt;/sub&gt;&lt;sup&gt;(t+0.5)&lt;/sup&gt;" style="rounded=0;whiteSpace=wrap;html=1;fillColor=#dae8fc;strokeColor=#6c8ebf;" vertex="1" parent="1">
          <mxGeometry x="540" y="120" width="50" height="60" as="geometry" />
        </mxCell>
        <mxCell id="V-CbSPrDg8GrjM4xDY10-36" value="" style="edgeStyle=orthogonalEdgeStyle;rounded=0;orthogonalLoop=1;jettySize=auto;html=1;" edge="1" parent="1" source="V-CbSPrDg8GrjM4xDY10-33" target="V-CbSPrDg8GrjM4xDY10-30">
          <mxGeometry relative="1" as="geometry" />
        </mxCell>
        <mxCell id="V-CbSPrDg8GrjM4xDY10-33" value="&lt;font style=&quot;font-size: 16px;&quot;&gt;MLP&lt;/font&gt;" style="rounded=0;whiteSpace=wrap;html=1;fillColor=#f8cecc;strokeColor=#b85450;" vertex="1" parent="1">
          <mxGeometry x="625" y="130" width="110" height="40" as="geometry" />
        </mxCell>
        <mxCell id="V-CbSPrDg8GrjM4xDY10-35" value="" style="endArrow=classic;html=1;rounded=0;exitX=0.5;exitY=0;exitDx=0;exitDy=0;entryX=1;entryY=0.5;entryDx=0;entryDy=0;" edge="1" parent="1" source="V-CbSPrDg8GrjM4xDY10-19" target="V-CbSPrDg8GrjM4xDY10-33">
          <mxGeometry width="50" height="50" relative="1" as="geometry">
            <mxPoint x="750" y="190" as="sourcePoint" />
            <mxPoint x="800" y="140" as="targetPoint" />
            <Array as="points">
              <mxPoint x="785" y="150" />
            </Array>
          </mxGeometry>
        </mxCell>
        <mxCell id="V-CbSPrDg8GrjM4xDY10-37" value="&lt;font style=&quot;font-size: 18px;&quot;&gt;MLP&lt;/font&gt;" style="shape=trapezoid;perimeter=trapezoidPerimeter;whiteSpace=wrap;html=1;fixedSize=1;direction=south;fillColor=#e1d5e7;strokeColor=#9673a6;" vertex="1" parent="1">
          <mxGeometry x="350" y="90" width="60" height="120" as="geometry" />
        </mxCell>
        <mxCell id="V-CbSPrDg8GrjM4xDY10-39" value="&lt;font style=&quot;font-size: 14px;&quot;&gt;Self-attention&lt;br style=&quot;border-color: var(--border-color);&quot;&gt;Encoder&lt;/font&gt;" style="shape=trapezoid;perimeter=trapezoidPerimeter;whiteSpace=wrap;html=1;fixedSize=1;direction=north;fillColor=#e1d5e7;strokeColor=#9673a6;" vertex="1" parent="1">
          <mxGeometry x="430" y="90" width="60" height="120" as="geometry" />
        </mxCell>
        <mxCell id="V-CbSPrDg8GrjM4xDY10-40" value="&lt;font style=&quot;font-size: 18px;&quot;&gt;VAE&lt;/font&gt;" style="text;html=1;strokeColor=none;fillColor=none;align=center;verticalAlign=middle;whiteSpace=wrap;rounded=0;" vertex="1" parent="1">
          <mxGeometry x="390" y="200" width="60" height="30" as="geometry" />
        </mxCell>
        <mxCell id="V-CbSPrDg8GrjM4xDY10-42" value="" style="endArrow=classic;html=1;rounded=0;exitX=0.5;exitY=1;exitDx=0;exitDy=0;entryX=0.5;entryY=0;entryDx=0;entryDy=0;" edge="1" parent="1" source="V-CbSPrDg8GrjM4xDY10-37" target="V-CbSPrDg8GrjM4xDY10-1">
          <mxGeometry width="50" height="50" relative="1" as="geometry">
            <mxPoint x="60" y="190" as="sourcePoint" />
            <mxPoint x="110" y="140" as="targetPoint" />
            <Array as="points">
              <mxPoint x="160" y="150" />
            </Array>
          </mxGeometry>
        </mxCell>
      </root>
    </mxGraphModel>
  </diagram>
</mxfile>
